<svg id="svg" version="1.1" xmlns="http://www.w3.org/2000/svg" xmlns:xlink="http://www.w3.org/1999/xlink" width="400" height="400" viewBox="0, 0, 400,400"><g id="svgg"><path id="path0" d="M161.375 31.002 C 158.884 31.524,156.168 32.167,155.340 32.430 C 152.417 33.362,147.522 34.562,137.194 36.880 C 124.069 39.826,120.952 41.448,117.702 47.023 C 111.995 56.816,113.712 76.076,121.024 84.273 C 123.456 87.001,123.684 85.735,119.153 94.683 C 106.591 119.492,94.812 152.182,87.260 183.197 C 85.199 191.660,84.960 192.405,84.015 193.312 C 83.454 193.850,81.964 195.260,80.704 196.445 C 76.443 200.452,72.374 209.983,70.134 221.203 C 65.972 242.043,65.130 261.563,67.937 272.104 C 69.765 278.968,69.754 278.687,68.556 288.276 C 67.040 300.401,66.794 307.569,66.994 333.768 C 67.202 360.932,67.554 364.879,70.142 369.005 C 70.648 369.812,71.589 371.595,72.233 372.965 C 77.901 385.025,90.543 388.880,96.368 380.325 C 97.648 378.446,97.923 377.816,101.969 367.537 C 107.353 353.855,110.582 349.500,115.795 348.882 C 118.846 348.521,120.889 350.392,124.195 356.574 C 129.574 366.634,132.596 369.457,138.010 369.482 C 145.524 369.516,148.582 362.505,147.112 348.613 C 145.802 336.235,147.136 327.555,151.766 318.322 C 157.688 306.512,161.250 304.266,172.047 305.534 C 179.853 306.452,182.083 305.932,184.910 302.537 C 186.876 300.175,187.230 299.240,187.937 294.542 C 189.149 286.481,190.002 284.813,194.339 282.015 C 199.734 278.535,200.977 276.718,202.808 269.636 C 204.873 261.650,206.119 260.322,210.920 260.989 C 217.099 261.849,220.585 260.566,225.472 255.633 C 230.278 250.782,231.654 250.216,233.165 252.464 C 235.623 256.121,235.924 260.829,234.305 270.310 C 231.374 287.473,231.637 293.207,235.576 297.961 C 238.878 301.947,245.691 302.356,249.264 298.783 C 253.372 294.676,254.882 288.252,253.313 281.566 C 252.157 276.641,252.312 267.782,253.673 261.011 C 255.847 250.192,255.716 247.056,252.673 237.091 C 250.250 229.157,250.298 228.170,253.336 223.471 C 258.239 215.886,263.251 213.090,269.714 214.335 C 281.233 216.553,288.144 213.262,290.056 204.647 C 292.129 195.309,293.136 194.458,298.978 197.112 C 308.883 201.612,315.337 197.321,319.738 183.309 C 322.136 175.672,325.499 171.161,329.881 169.703 C 331.512 169.160,332.383 168.614,333.610 167.368 C 335.478 165.472,335.264 165.513,337.872 166.556 C 348.249 170.708,361.726 168.146,369.156 160.611 C 376.285 153.381,377.954 141.314,373.164 131.648 C 363.372 111.889,345.862 93.395,318.434 73.838 C 282.455 48.184,194.237 24.124,161.375 31.002 " stroke="none" fill="#fdbf19" fill-rule="evenodd"></path><path id="path1" d="M161.375 31.002 C 158.884 31.524,156.168 32.167,155.340 32.430 C 152.417 33.362,147.522 34.562,137.194 36.880 C 124.069 39.826,120.952 41.448,117.702 47.023 C 111.995 56.816,113.712 76.076,121.024 84.273 C 123.456 87.001,123.684 85.735,119.153 94.683 C 106.591 119.492,94.812 152.182,87.260 183.197 C 85.199 191.660,84.960 192.405,84.015 193.312 C 83.454 193.850,81.964 195.260,80.704 196.445 C 76.443 200.452,72.374 209.983,70.134 221.203 C 65.972 242.043,65.130 261.563,67.937 272.104 C 69.765 278.968,69.754 278.687,68.556 288.276 C 67.040 300.401,66.794 307.569,66.994 333.768 C 67.202 360.932,67.554 364.879,70.142 369.005 C 70.648 369.812,71.589 371.595,72.233 372.965 C 77.901 385.025,90.543 388.880,96.368 380.325 C 97.648 378.446,97.923 377.816,101.969 367.537 C 107.353 353.855,110.582 349.500,115.795 348.882 C 118.846 348.521,120.889 350.392,124.195 356.574 C 129.574 366.634,132.596 369.457,138.010 369.482 C 145.524 369.516,148.582 362.505,147.112 348.613 C 145.802 336.235,147.136 327.555,151.766 318.322 C 157.688 306.512,161.250 304.266,172.047 305.534 C 179.853 306.452,182.083 305.932,184.910 302.537 C 186.876 300.175,187.230 299.240,187.937 294.542 C 189.149 286.481,190.002 284.813,194.339 282.015 C 199.734 278.535,200.977 276.718,202.808 269.636 C 204.873 261.650,206.119 260.322,210.920 260.989 C 217.099 261.849,220.585 260.566,225.472 255.633 C 230.278 250.782,231.654 250.216,233.165 252.464 C 235.623 256.121,235.924 260.829,234.305 270.310 C 231.374 287.473,231.637 293.207,235.576 297.961 C 238.878 301.947,245.691 302.356,249.264 298.783 C 253.372 294.676,254.882 288.252,253.313 281.566 C 252.157 276.641,252.312 267.782,253.673 261.011 C 255.847 250.192,255.716 247.056,252.673 237.091 C 250.250 229.157,250.298 228.170,253.336 223.471 C 258.239 215.886,263.251 213.090,269.714 214.335 C 281.233 216.553,288.144 213.262,290.056 204.647 C 292.129 195.309,293.136 194.458,298.978 197.112 C 308.883 201.612,315.337 197.321,319.738 183.309 C 322.136 175.672,325.499 171.161,329.881 169.703 C 331.512 169.160,332.383 168.614,333.610 167.368 C 335.478 165.472,335.264 165.513,337.872 166.556 C 348.249 170.708,361.726 168.146,369.156 160.611 C 376.285 153.381,377.954 141.314,373.164 131.648 C 363.372 111.889,345.862 93.395,318.434 73.838 C 282.455 48.184,194.237 24.124,161.375 31.002 " stroke="none" fill="#fdbf19" fill-rule="evenodd"></path><path id="path2" d="M161.375 31.002 C 158.884 31.524,156.168 32.167,155.340 32.430 C 152.417 33.362,147.522 34.562,137.194 36.880 C 124.069 39.826,120.952 41.448,117.702 47.023 C 111.995 56.816,113.712 76.076,121.024 84.273 C 123.456 87.001,123.684 85.735,119.153 94.683 C 106.591 119.492,94.812 152.182,87.260 183.197 C 85.199 191.660,84.960 192.405,84.015 193.312 C 83.454 193.850,81.964 195.260,80.704 196.445 C 76.443 200.452,72.374 209.983,70.134 221.203 C 65.972 242.043,65.130 261.563,67.937 272.104 C 69.765 278.968,69.754 278.687,68.556 288.276 C 67.040 300.401,66.794 307.569,66.994 333.768 C 67.202 360.932,67.554 364.879,70.142 369.005 C 70.648 369.812,71.589 371.595,72.233 372.965 C 77.901 385.025,90.543 388.880,96.368 380.325 C 97.648 378.446,97.923 377.816,101.969 367.537 C 107.353 353.855,110.582 349.500,115.795 348.882 C 118.846 348.521,120.889 350.392,124.195 356.574 C 129.574 366.634,132.596 369.457,138.010 369.482 C 145.524 369.516,148.582 362.505,147.112 348.613 C 145.802 336.235,147.136 327.555,151.766 318.322 C 157.688 306.512,161.250 304.266,172.047 305.534 C 179.853 306.452,182.083 305.932,184.910 302.537 C 186.876 300.175,187.230 299.240,187.937 294.542 C 189.149 286.481,190.002 284.813,194.339 282.015 C 199.734 278.535,200.977 276.718,202.808 269.636 C 204.873 261.650,206.119 260.322,210.920 260.989 C 217.099 261.849,220.585 260.566,225.472 255.633 C 230.278 250.782,231.654 250.216,233.165 252.464 C 235.623 256.121,235.924 260.829,234.305 270.310 C 231.374 287.473,231.637 293.207,235.576 297.961 C 238.878 301.947,245.691 302.356,249.264 298.783 C 253.372 294.676,254.882 288.252,253.313 281.566 C 252.157 276.641,252.312 267.782,253.673 261.011 C 255.847 250.192,255.716 247.056,252.673 237.091 C 250.250 229.157,250.298 228.170,253.336 223.471 C 258.239 215.886,263.251 213.090,269.714 214.335 C 281.233 216.553,288.144 213.262,290.056 204.647 C 292.129 195.309,293.136 194.458,298.978 197.112 C 308.883 201.612,315.337 197.321,319.738 183.309 C 322.136 175.672,325.499 171.161,329.881 169.703 C 331.512 169.160,332.383 168.614,333.610 167.368 C 335.478 165.472,335.264 165.513,337.872 166.556 C 348.249 170.708,361.726 168.146,369.156 160.611 C 376.285 153.381,377.954 141.314,373.164 131.648 C 363.372 111.889,345.862 93.395,318.434 73.838 C 282.455 48.184,194.237 24.124,161.375 31.002 " stroke="none" fill="#fdbf19" fill-rule="evenodd"></path></g></svg>